<mxfile host="app.diagrams.net" agent="Mozilla/5.0 (Windows NT 10.0; Win64; x64) AppleWebKit/537.36 (KHTML, like Gecko) Chrome/132.0.0.0 Safari/537.36" version="26.0.12">
  <diagram name="Page-1" id="w-bSZiB5hpkU1wU3O6K7">
    <mxGraphModel dx="1850" dy="1015" grid="0" gridSize="10" guides="1" tooltips="1" connect="1" arrows="1" fold="1" page="0" pageScale="1" pageWidth="850" pageHeight="1100" math="0" shadow="0">
      <root>
        <mxCell id="0" />
        <mxCell id="1" parent="0" />
        <mxCell id="ywrjmyMHSPTb00hXgZXn-11" value="E1" style="rounded=0;whiteSpace=wrap;html=1;" vertex="1" parent="1">
          <mxGeometry x="-316" y="-367" width="120" height="60" as="geometry" />
        </mxCell>
        <mxCell id="ywrjmyMHSPTb00hXgZXn-12" value="R" style="rhombus;whiteSpace=wrap;html=1;" vertex="1" parent="1">
          <mxGeometry x="-296" y="-274" width="80" height="52" as="geometry" />
        </mxCell>
        <mxCell id="ywrjmyMHSPTb00hXgZXn-13" value="E2" style="rounded=0;whiteSpace=wrap;html=1;" vertex="1" parent="1">
          <mxGeometry x="-153" y="-278" width="120" height="60" as="geometry" />
        </mxCell>
        <mxCell id="ywrjmyMHSPTb00hXgZXn-14" value="E3" style="rounded=0;whiteSpace=wrap;html=1;" vertex="1" parent="1">
          <mxGeometry x="-499" y="-278" width="120" height="60" as="geometry" />
        </mxCell>
        <mxCell id="ywrjmyMHSPTb00hXgZXn-15" value="" style="endArrow=classic;html=1;rounded=0;fontSize=12;startSize=8;endSize=8;curved=1;exitX=0;exitY=0.5;exitDx=0;exitDy=0;entryX=1;entryY=0.5;entryDx=0;entryDy=0;" edge="1" parent="1" source="ywrjmyMHSPTb00hXgZXn-12" target="ywrjmyMHSPTb00hXgZXn-14">
          <mxGeometry width="50" height="50" relative="1" as="geometry">
            <mxPoint x="-281" y="-223" as="sourcePoint" />
            <mxPoint x="-231" y="-273" as="targetPoint" />
          </mxGeometry>
        </mxCell>
        <mxCell id="ywrjmyMHSPTb00hXgZXn-16" value="" style="endArrow=none;html=1;rounded=0;fontSize=12;startSize=8;endSize=8;curved=1;exitX=0.5;exitY=0;exitDx=0;exitDy=0;entryX=0.5;entryY=1;entryDx=0;entryDy=0;" edge="1" parent="1" source="ywrjmyMHSPTb00hXgZXn-12" target="ywrjmyMHSPTb00hXgZXn-11">
          <mxGeometry width="50" height="50" relative="1" as="geometry">
            <mxPoint x="-281" y="-223" as="sourcePoint" />
            <mxPoint x="-231" y="-273" as="targetPoint" />
          </mxGeometry>
        </mxCell>
        <mxCell id="ywrjmyMHSPTb00hXgZXn-17" value="" style="endArrow=none;html=1;rounded=0;fontSize=12;startSize=8;endSize=8;curved=1;exitX=1;exitY=0.5;exitDx=0;exitDy=0;entryX=0;entryY=0.5;entryDx=0;entryDy=0;" edge="1" parent="1" source="ywrjmyMHSPTb00hXgZXn-12" target="ywrjmyMHSPTb00hXgZXn-13">
          <mxGeometry width="50" height="50" relative="1" as="geometry">
            <mxPoint x="-246" y="-278" as="sourcePoint" />
            <mxPoint x="-246" y="-344" as="targetPoint" />
          </mxGeometry>
        </mxCell>
      </root>
    </mxGraphModel>
  </diagram>
</mxfile>
